<svg width="27" height="27" viewBox="0 0 27 27" fill="none" xmlns="http://www.w3.org/2000/svg">
<path fill-rule="evenodd" clip-rule="evenodd" d="M5.50055 6C4.12368 6 3 6.98107 3 8.18302V19.5313C3 20.7332 4.12368 21.7143 5.50055 21.7143H22.4995C23.8749 21.7143 25 20.7332 25 19.5313V8.18302C25 6.98107 23.8763 6 22.4995 6H5.50055V6ZM5.50055 6.87493H22.4995C23.3387 6.87493 23.9986 7.45009 23.9986 8.18302V8.22174L13.9993 16.9509L3.99993 8.22174V8.18302C3.99993 7.45009 4.65992 6.87349 5.50055 6.87349V6.87493ZM3.99993 9.45668L9.15181 13.9532L3.99993 18.4498V9.45668ZM24.0001 9.45668V18.2978L18.9364 13.8772L24.0001 9.45668ZM18.2295 14.494L24.0001 19.5313C24.0001 20.2642 23.3401 20.8408 22.5009 20.8408H5.50055C4.71824 20.8408 4.09097 20.3388 4.00989 19.6761L9.86015 14.57L13.6465 17.8761C13.8414 18.0453 14.1586 18.0453 14.3535 17.8761L18.2295 14.4911V14.494V14.494Z" fill="#EE4C77" stroke="#EE4C77" stroke-width="0.644"/>
</svg>
